<svg xmlns="http://www.w3.org/2000/svg" viewBox="0 0 24 24" fill="#ffffff" aria-hidden="true">
  <path d="M9.101 23.691v-7.98H6.627v-3.667h2.474v-1.58c0-4.085 1.848-5.978 5.858-5.978.401 0 .955.042 1.468.103a8.68 8.68 0 0 1 1.141.195v3.325a8.043 8.043 0 0 0-.653-.036 26.805 26.805 0 0 0-.733-.009c-.707 0-1.259.096-1.675.309a1.686 1.686 0 0 0-.679.622 2.258 2.258 0 0 0-.251 1.026v1.59h3.914l-.667 3.667h-3.247v8.245C19.396 23.238 24 18.179 24 12.044 24 5.417 18.627 0 12 0S0 5.417 0 12.044c0 5.628 3.874 10.35 9.101 11.647z"/>
</svg>
